<svg width="544" height="219" viewBox="0 0 544 219" fill="none" xmlns="http://www.w3.org/2000/svg">
<g clip-path="url(#clip0_1_2)">
<path d="M29.4007 42.7287C29.4007 42.7287 -1.52547 45.4461 1.16601 76.3722L5.92786 130.823C5.92786 130.823 8.64522 161.749 39.5714 159.058L514.592 117.495C514.592 117.495 545.518 114.778 542.827 83.8514L538.065 29.4007C538.065 29.4007 535.347 -1.52547 504.421 1.16601L29.4007 42.7287Z" stroke="#F15A22" stroke-width="2"/>
<path d="M16.3056 61.4138L32.558 59.9904C43.0393 59.0588 50.182 58.9294 53.9863 59.5763C57.7648 60.2233 60.715 61.5432 62.8372 63.5877C64.9593 65.6322 66.3827 67.9614 67.0814 70.627C67.8061 73.2926 68.5048 78.572 69.2036 86.4912L71.7657 115.761C72.4126 123.266 72.5162 128.313 72.0245 130.901C71.5327 133.489 70.4717 135.585 68.8413 137.163C67.2108 138.742 65.1405 139.933 62.6043 140.735C60.0681 141.537 56.212 142.158 51.0102 142.598L23.6037 145.005L16.3056 61.4138ZM39.2867 73.8101L44.1003 128.778C47.2318 128.494 49.0951 127.717 49.7162 126.398C50.3373 125.078 50.3891 121.636 49.8974 116.046L47.0506 83.5927C46.7142 79.8142 46.3777 77.4074 46.0672 76.3463C45.7307 75.3112 45.1096 74.5607 44.2038 74.1466C43.2981 73.7066 41.6676 73.6031 39.2867 73.8101Z" fill="#F15A22"/>
<path d="M74.7418 56.2896L110.973 53.1323L112.448 69.8506L97.9558 71.1187L99.3533 86.957L112.94 85.7665L114.338 101.657L100.751 102.847L102.355 121.222L118.297 119.824L119.772 136.542L82.0916 139.829L74.7418 56.2896Z" fill="#F15A22"/>
<path d="M118.66 52.4594L140.554 50.5443C146.48 50.0267 151.061 50.1044 154.322 50.7514C157.583 51.3984 160.093 52.5371 161.853 54.1416C163.612 55.7461 164.881 57.7906 165.657 60.2233C166.433 62.656 167.054 66.5121 167.52 71.7398L168.167 79.0119C168.633 84.3431 168.426 88.2768 167.546 90.813C166.666 93.3492 164.803 95.3937 161.982 96.9724C159.161 98.5511 155.357 99.5345 150.621 99.9486L144.798 100.466L147.748 134.11L126.009 135.999L118.66 52.4594ZM141.641 64.8558L143.504 86.1288C144.125 86.1029 144.669 86.0771 145.109 86.0512C147.101 85.87 148.447 85.2748 149.146 84.2137C149.844 83.1786 150.052 81.0823 149.767 78.0026L149.172 71.1445C148.913 68.2978 148.318 66.4603 147.334 65.6839C146.351 64.8558 144.462 64.597 141.641 64.8558Z" fill="#F15A22"/>
<path d="M171.713 47.8011L207.944 44.6179L209.419 61.3362L194.927 62.6043L196.324 78.4426L209.911 77.2521L211.309 93.1422L197.722 94.3327L199.326 112.707L215.268 111.31L216.743 128.028L179.063 131.315L171.713 47.8011Z" fill="#F15A22"/>
<path d="M264.155 39.7267L271.479 123.292L252.431 124.948L237.809 87.9404L241.122 125.932L222.954 127.51L215.631 43.9451L233.798 42.3664L249.274 78.9343L245.987 41.3053L264.155 39.7267Z" fill="#F15A22"/>
<path d="M272.876 38.9503L289.129 37.5269C299.61 36.6211 306.753 36.4658 310.557 37.1128C314.335 37.7598 317.286 39.0797 319.408 41.1242C321.53 43.1687 322.953 45.4978 323.652 48.1634C324.377 50.829 325.075 56.1085 325.774 64.0277L328.336 93.2975C328.983 100.803 329.087 105.849 328.595 108.437C328.103 111.025 327.068 113.121 325.438 114.7C323.807 116.279 321.737 117.469 319.201 118.271C316.665 119.074 312.809 119.695 307.607 120.135L280.2 122.541L272.876 38.9503ZM295.857 51.3466L300.671 106.315C303.802 106.03 305.666 105.254 306.287 103.934C306.908 102.614 306.96 99.1722 306.468 93.5822L303.621 61.1291C303.285 57.3507 302.948 54.918 302.612 53.8828C302.276 52.8477 301.654 52.0972 300.749 51.6831C299.869 51.2431 298.212 51.1396 295.857 51.3466Z" fill="#F15A22"/>
<path d="M368.864 30.5653L388.61 113.044L366.405 114.985L363.921 100.078L356.157 100.751V115.89L333.693 117.857L337.472 33.3344L368.864 30.5653ZM362.032 85.3007C360.091 75.9323 357.968 64.3382 355.639 50.4926C354.837 66.6933 354.449 78.5202 354.552 85.9477L362.032 85.3007Z" fill="#F15A22"/>
<path d="M384.961 29.1419L406.648 27.2527C413.506 26.6575 418.734 26.7351 422.357 27.4856C425.98 28.2361 429.008 30.1512 431.467 33.205C433.925 36.2588 435.452 41.4089 436.099 48.6293C436.539 53.5205 436.047 56.9884 434.702 59.0329C433.33 61.1032 430.457 62.8372 426.032 64.2606C431.156 64.9593 434.727 66.538 436.746 69.0224C438.765 71.5069 440.007 75.4664 440.499 80.9012L441.171 88.6392C441.663 94.2809 441.378 98.5252 440.343 101.346C439.282 104.167 437.393 106.211 434.676 107.454C431.932 108.696 426.213 109.705 417.466 110.456L392.337 112.655L384.961 29.1419ZM407.942 41.5383L409.572 60.1198C410.504 60.0163 411.229 59.9128 411.746 59.8869C413.868 59.7057 415.188 59.0588 415.68 57.9459C416.172 56.859 416.198 53.8052 415.784 48.8622C415.551 46.2483 415.162 44.4368 414.567 43.4275C413.998 42.4181 413.299 41.8229 412.497 41.6159C411.72 41.4089 410.194 41.383 407.942 41.5383ZM410.711 73.1373L412.756 96.5066C415.809 96.1443 417.725 95.4714 418.475 94.5397C419.251 93.6081 419.484 91.46 419.174 88.0698L418.501 80.28C418.19 76.7087 417.621 74.5607 416.793 73.8619C415.991 73.2149 413.946 72.9561 410.711 73.1373Z" fill="#F15A22"/>
<path d="M465.084 22.1285L470.933 88.9756L484.158 87.811L485.633 104.529L450.695 107.583L443.371 24.0177L465.084 22.1285Z" fill="#F15A22"/>
<path d="M483.562 20.524L519.794 17.3667L521.269 34.0849L506.776 35.353L508.174 51.1913L521.761 50.0009L523.158 65.891L509.571 67.0814L511.176 85.456L527.118 84.0585L528.593 100.777L490.912 104.063L483.562 20.524Z" fill="#F15A22"/>
<path d="M61.0515 147.489V196.997H70.834V209.394H44.9543V147.515H61.0515V147.489Z" fill="black"/>
<path d="M88.0698 178.312H73.5772V174.896C73.5772 170.962 74.0431 167.934 74.923 165.812C75.8287 163.69 77.6403 161.801 80.3836 160.17C83.1009 158.54 86.6464 157.712 91.0201 157.712C96.2478 157.712 100.181 158.644 102.821 160.481C105.461 162.318 107.065 164.596 107.609 167.287C108.152 169.979 108.411 175.517 108.411 183.902V209.368H93.401V204.839C92.4435 206.65 91.253 207.996 89.752 208.902C88.251 209.808 86.4912 210.273 84.4208 210.273C81.7293 210.273 79.2449 209.523 76.9933 207.996C74.7418 206.469 73.6031 203.157 73.6031 198.032V193.866C73.6031 190.061 74.1983 187.473 75.3888 186.102C76.5793 184.73 79.5554 183.126 84.2914 181.288C89.3638 179.296 92.0812 177.976 92.4435 177.277C92.8058 176.578 92.9869 175.181 92.9869 173.084C92.9869 170.445 92.7799 168.711 92.3917 167.908C92.0035 167.106 91.3307 166.718 90.4249 166.718C89.3897 166.718 88.7168 167.054 88.4839 167.727C88.2251 168.4 88.0957 170.16 88.0957 172.981V178.312H88.0698ZM92.9611 185.248C90.5025 187.059 89.0532 188.586 88.665 189.803C88.2769 191.019 88.0698 192.779 88.0698 195.082C88.0698 197.696 88.251 199.404 88.5874 200.154C88.9238 200.931 89.6226 201.293 90.6319 201.293C91.5894 201.293 92.2364 201.008 92.5211 200.387C92.8058 199.792 92.9611 198.214 92.9611 195.677V185.248Z" fill="black"/>
<path d="M146.04 158.644L141.615 195.341C140.916 201.164 140.321 205.098 139.855 207.22C139.389 209.342 138.587 211.076 137.5 212.447C136.413 213.819 134.886 214.828 132.919 215.475C130.978 216.122 127.847 216.459 123.577 216.459H114.208V208.358C116.615 208.358 118.142 208.229 118.841 207.996C119.539 207.763 119.876 207.22 119.876 206.366C119.876 205.952 119.565 204.192 118.918 201.06L110.456 158.618H124.482L129.555 192.856L132.039 158.618H146.04V158.644Z" fill="black"/>
<path d="M183.747 176.475V188.897C183.747 193.452 183.514 196.816 183.048 198.938C182.582 201.06 181.599 203.053 180.098 204.89C178.597 206.728 176.656 208.1 174.301 208.979C171.946 209.859 169.228 210.299 166.175 210.299C162.758 210.299 159.86 209.911 157.505 209.161C155.15 208.41 153.286 207.271 151.992 205.744C150.673 204.218 149.741 202.406 149.172 200.232C148.602 198.084 148.318 194.849 148.318 190.553V177.562C148.318 172.851 148.835 169.151 149.844 166.511C150.854 163.871 152.691 161.723 155.357 160.119C157.997 158.514 161.387 157.712 165.528 157.712C168.995 157.712 171.972 158.229 174.456 159.265C176.94 160.3 178.856 161.646 180.201 163.302C181.547 164.958 182.479 166.666 182.97 168.426C183.488 170.212 183.747 172.877 183.747 176.475ZM168.297 172.644C168.297 170.056 168.167 168.4 167.883 167.727C167.598 167.054 167.003 166.718 166.097 166.718C165.191 166.718 164.57 167.054 164.259 167.727C163.949 168.4 163.794 170.031 163.794 172.644V195.548C163.794 197.929 163.949 199.507 164.259 200.232C164.57 200.957 165.165 201.319 166.045 201.319C166.951 201.319 167.572 200.983 167.857 200.336C168.141 199.663 168.297 198.239 168.297 196.065V172.644Z" fill="black"/>
<path d="M224.197 158.644V209.368H208.488L208.747 205.149C207.685 206.857 206.366 208.151 204.787 209.005C203.208 209.859 201.423 210.299 199.378 210.299C197.049 210.299 195.134 209.885 193.607 209.083C192.08 208.281 190.941 207.194 190.217 205.848C189.492 204.502 189.026 203.079 188.871 201.63C188.69 200.154 188.612 197.256 188.612 192.882V158.644H204.062V193.167C204.062 197.127 204.192 199.456 204.425 200.206C204.658 200.957 205.33 201.319 206.391 201.319C207.53 201.319 208.229 200.931 208.436 200.18C208.643 199.43 208.747 196.945 208.747 192.805V158.644H224.197Z" fill="black"/>
<path d="M246.013 151.889V159.886H250.18V167.908H246.013V195.056C246.013 198.395 246.194 200.258 246.531 200.646C246.867 201.034 248.316 201.216 250.827 201.216V209.394H244.59C241.07 209.394 238.56 209.238 237.059 208.954C235.558 208.669 234.238 207.996 233.073 206.935C231.935 205.874 231.21 204.658 230.925 203.312C230.641 201.94 230.511 198.757 230.511 193.71V167.96H227.173V159.938H230.511V151.941H246.013V151.889Z" fill="black"/>
<path d="M280.899 201.992C279.916 201.992 279.165 201.681 278.673 201.086C278.182 200.465 277.923 199.559 277.923 198.343C277.923 196.661 278.725 195.082 280.33 193.633L284.522 200.646C283.15 201.552 281.96 201.992 280.899 201.992ZM279.217 174.948C279.217 173.99 279.398 173.266 279.76 172.8C280.123 172.334 280.666 172.075 281.365 172.075C282.141 172.075 282.736 172.386 283.176 173.007C283.59 173.628 283.823 174.327 283.823 175.051C283.823 176.785 283.099 178.623 281.624 180.538C280.019 178.83 279.217 176.966 279.217 174.948ZM294.537 194.176L289.957 185.895C292.648 183.177 293.994 180.072 293.994 176.552C293.994 173.214 292.881 170.471 290.681 168.297C288.456 166.123 285.428 165.062 281.572 165.062C277.302 165.062 273.937 166.149 271.479 168.374C269.046 170.574 267.804 173.498 267.804 177.096C267.804 181.288 269.512 184.627 272.954 187.085C270.547 188.095 268.761 189.389 267.571 190.993C266.38 192.598 265.759 194.823 265.759 197.644C265.759 201.19 266.795 204.192 268.813 206.702C270.858 209.212 273.756 210.455 277.509 210.455C281.106 210.455 284.91 209.135 288.947 206.469L290.5 209.368H302.508L297.979 200.698L301.603 198.369V189.596L294.537 194.176Z" stroke="black" stroke-width="2.42"/>
<path d="M301.628 189.621V198.395L298.005 200.698L302.534 209.368H290.526L288.973 206.469C284.962 209.109 281.132 210.455 277.535 210.455C273.782 210.455 270.858 209.212 268.839 206.702C266.795 204.218 265.785 201.19 265.785 197.644C265.785 194.823 266.38 192.598 267.597 190.993C268.787 189.389 270.599 188.095 272.98 187.085C269.564 184.627 267.83 181.288 267.83 177.096C267.83 173.473 269.046 170.574 271.479 168.374C273.911 166.175 277.276 165.062 281.572 165.062C285.428 165.062 288.456 166.149 290.681 168.297C292.907 170.471 293.994 173.214 293.994 176.552C293.994 180.072 292.648 183.177 289.957 185.895L294.537 194.176L301.628 189.621ZM284.522 200.62L280.33 193.607C278.725 195.056 277.923 196.635 277.923 198.317C277.923 199.533 278.182 200.465 278.673 201.06C279.165 201.681 279.916 201.966 280.899 201.966C281.96 201.992 283.15 201.552 284.522 200.62ZM281.624 180.538C283.073 178.623 283.797 176.785 283.797 175.051C283.797 174.301 283.59 173.602 283.15 172.981C282.71 172.36 282.115 172.049 281.365 172.049C280.666 172.049 280.123 172.282 279.76 172.774C279.398 173.24 279.217 173.964 279.217 174.922C279.217 176.966 280.019 178.83 281.624 180.538Z" fill="#BCBEC0"/>
<path d="M319.537 147.489H331.571C339.335 147.489 344.589 147.852 347.332 148.551C350.075 149.275 352.146 150.44 353.595 152.07C355.018 153.701 355.898 155.512 356.26 157.531C356.623 159.523 356.804 163.457 356.804 169.332V191.019C356.804 196.583 356.545 200.284 356.027 202.173C355.51 204.036 354.604 205.512 353.31 206.573C352.016 207.634 350.412 208.358 348.497 208.798C346.581 209.212 343.709 209.419 339.853 209.419H319.563V147.489H319.537ZM335.608 158.074V198.783C337.938 198.783 339.361 198.317 339.879 197.385C340.422 196.454 340.681 193.917 340.681 189.803V165.76C340.681 162.965 340.603 161.154 340.422 160.378C340.241 159.575 339.827 159.006 339.206 158.644C338.585 158.281 337.394 158.074 335.608 158.074Z" fill="black"/>
<path d="M397.331 184.911H377.326V195.884C377.326 198.188 377.482 199.663 377.818 200.31C378.155 200.957 378.802 201.293 379.733 201.293C380.898 201.293 381.674 200.853 382.088 199.973C382.476 199.093 382.684 197.385 382.684 194.875V188.198H397.331V191.951C397.331 195.082 397.124 197.489 396.736 199.171C396.348 200.853 395.416 202.639 393.967 204.554C392.518 206.469 390.68 207.892 388.429 208.85C386.203 209.808 383.408 210.273 380.044 210.273C376.783 210.273 373.91 209.808 371.4 208.85C368.916 207.892 366.975 206.599 365.577 204.968C364.18 203.338 363.222 201.526 362.679 199.533C362.135 197.567 361.876 194.668 361.876 190.915V176.112C361.876 171.687 362.472 168.167 363.688 165.605C364.878 163.043 366.845 161.076 369.563 159.731C372.28 158.359 375.437 157.686 378.983 157.686C383.305 157.686 386.876 158.514 389.697 160.145C392.518 161.801 394.485 163.975 395.623 166.692C396.762 169.41 397.331 173.214 397.331 178.131V184.911ZM381.829 176.656V172.955C381.829 170.341 381.7 168.633 381.415 167.883C381.131 167.106 380.561 166.744 379.681 166.744C378.62 166.744 377.948 167.054 377.689 167.727C377.43 168.374 377.301 170.134 377.301 172.981V176.682H381.829V176.656Z" fill="black"/>
<path d="M433.899 174.87H420.209V172.101C420.209 169.746 420.08 168.271 419.795 167.65C419.536 167.029 418.863 166.718 417.802 166.718C416.922 166.718 416.275 167.003 415.861 167.572C415.421 168.141 415.214 168.995 415.214 170.16C415.214 171.713 415.318 172.851 415.525 173.576C415.732 174.301 416.405 175.103 417.466 175.957C418.553 176.811 420.778 178.079 424.143 179.735C428.62 181.935 431.57 183.98 432.968 185.921C434.365 187.862 435.064 190.683 435.064 194.357C435.064 198.498 434.52 201.604 433.459 203.7C432.398 205.796 430.587 207.427 428.102 208.565C425.592 209.704 422.564 210.273 419.019 210.273C415.085 210.273 411.746 209.652 408.951 208.436C406.156 207.22 404.241 205.563 403.206 203.467C402.171 201.371 401.627 198.214 401.627 193.995V191.537H415.318V194.746C415.318 197.463 415.499 199.249 415.835 200.051C416.172 200.879 416.871 201.267 417.88 201.267C418.967 201.267 419.743 200.983 420.183 200.439C420.623 199.896 420.83 198.731 420.83 196.971C420.83 194.564 420.545 193.038 419.976 192.416C419.381 191.795 416.405 189.984 410.996 186.982C406.467 184.446 403.698 182.116 402.688 180.046C401.705 177.976 401.187 175.491 401.187 172.644C401.187 168.581 401.731 165.605 402.792 163.69C403.853 161.775 405.665 160.274 408.227 159.239C410.789 158.204 413.765 157.66 417.155 157.66C420.52 157.66 423.366 158.1 425.721 158.954C428.076 159.808 429.888 160.921 431.156 162.344C432.424 163.742 433.175 165.036 433.459 166.252C433.718 167.443 433.848 169.332 433.848 171.868V174.87H433.899Z" fill="black"/>
<path d="M455.121 147.489V155.564H439.231V147.489H455.121ZM455.121 158.644V209.368H439.231V158.644H455.121Z" fill="black"/>
<path d="M495.752 158.644V197.722C495.752 203.001 495.622 206.392 495.389 207.944C495.156 209.471 494.276 211.127 492.801 212.836C491.326 214.544 489.256 215.863 486.642 216.769C484.002 217.675 480.69 218.115 476.678 218.115C471.761 218.115 467.802 217.287 464.825 215.605C461.849 213.922 460.297 210.662 460.193 205.77H475.177C475.177 208.022 476.005 209.135 477.636 209.135C478.8 209.135 479.577 208.798 479.965 208.1C480.353 207.401 480.534 205.977 480.534 203.778V199.947C479.215 201.138 477.817 202.044 476.342 202.665C474.867 203.286 473.34 203.571 471.735 203.571C468.966 203.571 466.663 203.001 464.877 201.888C463.092 200.776 461.849 199.3 461.176 197.463C460.504 195.651 460.193 193.038 460.193 189.699V171.273C460.193 166.459 461.073 162.991 462.781 160.869C464.515 158.747 467.155 157.686 470.7 157.686C472.641 157.686 474.401 158.074 475.98 158.876C477.558 159.679 478.982 160.843 480.25 162.448L481.363 158.618H495.752V158.644ZM480.276 172.101C480.276 169.772 480.146 168.297 479.887 167.676C479.629 167.029 479.033 166.718 478.102 166.718C477.222 166.718 476.575 167.08 476.212 167.805C475.85 168.53 475.669 169.979 475.669 172.101V189.156C475.669 191.433 475.798 192.908 476.083 193.581C476.368 194.254 476.937 194.59 477.843 194.59C478.852 194.59 479.525 194.176 479.836 193.374C480.146 192.572 480.301 190.708 480.301 187.836V172.101H480.276Z" fill="black"/>
<path d="M516.973 158.644L516.714 163.328C517.827 161.464 519.199 160.067 520.829 159.135C522.434 158.204 524.323 157.738 526.419 157.738C529.059 157.738 531.233 158.359 532.915 159.601C534.597 160.843 535.684 162.422 536.176 164.311C536.667 166.2 536.9 169.384 536.9 173.809V209.368H521.45V174.249C521.45 170.755 521.347 168.633 521.114 167.857C520.881 167.08 520.26 166.718 519.199 166.718C518.112 166.718 517.413 167.158 517.128 168.038C516.844 168.918 516.714 171.273 516.714 175.103V209.394H501.264V158.669H516.973V158.644Z" fill="black"/>
</g>
<defs>
<clipPath id="clip0_1_2">
<rect width="544" height="219" fill="white"/>
</clipPath>
</defs>
</svg>
